<svg width="44" height="44" viewBox="0 0 44 44" fill="none" xmlns="http://www.w3.org/2000/svg">
<path d="M15.4804 6.73129C14.6054 7.04379 13.8523 7.60629 13.321 8.35629C12.8366 9.04379 12.5616 9.82817 12.5148 10.6719C9.22795 12.1109 6.53611 14.6367 4.89097 17.8253C3.24583 21.0139 2.74751 24.6714 3.47962 28.1839C4.21173 31.6964 6.12973 34.8503 8.91175 37.1162C11.6938 39.382 15.1705 40.6221 18.7585 40.6282C24.171 40.6282 28.9398 37.8782 31.7429 33.6938L32.1179 34.8375C32.3991 35.5563 32.8523 36.1563 33.4523 36.6407C31.5389 39.0581 29.059 40.9664 26.2321 42.1967C23.4053 43.4269 20.3186 43.9412 17.2456 43.6938C14.1726 43.4464 11.2079 42.4451 8.61422 40.7785C6.02052 39.112 3.87779 36.8315 2.37577 34.1392C0.873751 31.4468 0.058794 28.4257 0.0030642 25.3432C-0.0526656 22.2607 0.652552 19.212 2.05627 16.4672C3.45998 13.7223 5.51888 11.3659 8.05064 9.60664C10.5824 7.84739 13.5089 6.73957 16.571 6.38129L15.4804 6.73129ZM14.7804 14.8125C15.0179 14.948 15.272 15.0625 15.5429 15.1563L18.8585 16.25C19.3273 16.4063 19.7648 16.6563 20.3273 17.1563C20.4043 17.2355 20.4783 17.3188 20.5491 17.4063C19.1303 17.0714 17.6461 17.1402 16.2643 17.6048C14.8825 18.0695 13.6583 18.9115 12.7301 20.0356C11.8019 21.1598 11.2068 22.5212 11.012 23.9659C10.8172 25.4107 11.0305 26.8811 11.6278 28.2109C12.2251 29.5407 13.1826 30.6769 14.392 31.4909C15.6014 32.305 17.0144 32.7644 18.4712 32.8172C19.9281 32.8701 21.3707 32.5142 22.6358 31.7899C23.901 31.0657 24.9383 30.0018 25.6304 28.7188L25.771 28.9282C26.271 29.6157 26.9585 30.1157 27.8023 30.4282L28.1773 30.5532C27.2924 32.0559 26.061 33.3253 24.5858 34.2554C23.1106 35.1855 21.4344 35.7493 19.697 35.9C17.9596 36.0506 16.2114 35.7836 14.5982 35.1212C12.985 34.4589 11.5535 33.4203 10.4232 32.0923C9.29291 30.7643 8.49656 29.1852 8.10058 27.4869C7.70459 25.7885 7.72046 24.0201 8.14685 22.3291C8.57324 20.6381 9.39779 19.0736 10.5517 17.7661C11.7057 16.4585 13.1555 15.4458 14.7804 14.8125ZM35.896 18.75C36.0919 18.7482 36.2835 18.8078 36.4438 18.9205C36.6041 19.0331 36.7251 19.1932 36.7898 19.3782L37.5679 21.7719C37.8107 22.4983 38.2192 23.1582 38.761 23.6995C39.3028 24.2407 39.9632 24.6486 40.6898 24.8907L43.0804 25.6657L43.1273 25.6782C43.2648 25.7272 43.3892 25.8073 43.4907 25.9124C43.5921 26.0174 43.6679 26.1445 43.7121 26.2837C43.7562 26.4229 43.7676 26.5704 43.7453 26.7148C43.723 26.8591 43.6676 26.9963 43.5835 27.1157C43.4709 27.2749 43.3114 27.3951 43.1273 27.4594L40.7366 28.2344C40.01 28.4765 39.3497 28.8843 38.8079 29.4256C38.2661 29.9669 37.8576 30.6268 37.6148 31.3532L36.8366 33.7469C36.7719 33.9315 36.6515 34.0914 36.4919 34.2046C36.3324 34.3177 36.1416 34.3785 35.946 34.3785C35.7504 34.3785 35.5596 34.3177 35.4001 34.2046C35.2405 34.0914 35.1201 33.9315 35.0554 33.7469L34.2741 31.3532C34.0333 30.6248 33.626 29.9627 33.0846 29.4191C32.5433 28.8756 31.8827 28.4657 31.1554 28.2219L28.7648 27.4469C28.6272 27.3979 28.5028 27.3178 28.4014 27.2127C28.2999 27.1077 28.2241 26.9806 28.1799 26.8414C28.1358 26.7022 28.1244 26.5546 28.1467 26.4103C28.169 26.266 28.2244 26.1288 28.3085 26.0094C28.4211 25.8502 28.5806 25.73 28.7648 25.6657L31.1554 24.8907C31.8733 24.6424 32.5243 24.2318 33.0576 23.6909C33.5909 23.15 33.9923 22.4933 34.2304 21.7719L35.0085 19.375C35.0733 19.1917 35.1936 19.033 35.3526 18.921C35.5116 18.809 35.7015 18.7493 35.896 18.75ZM18.7585 21.875C19.5873 21.875 20.3822 22.2043 20.9682 22.7903C21.5543 23.3764 21.8835 24.1712 21.8835 25C21.8835 25.8288 21.5543 26.6237 20.9682 27.2097C20.3822 27.7958 19.5873 28.125 18.7585 28.125C17.9297 28.125 17.1348 27.7958 16.5488 27.2097C15.9627 26.6237 15.6335 25.8288 15.6335 25C15.6335 24.1712 15.9627 23.3764 16.5488 22.7903C17.1348 22.2043 17.9297 21.875 18.7585 21.875ZM26.5054 4.08857e-05C26.7792 -0.00146921 27.0466 0.0826766 27.2701 0.240697C27.4937 0.398718 27.6623 0.622703 27.7523 0.881291L28.8398 4.23129C29.1774 5.2487 29.7483 6.17306 30.5069 6.93052C31.2654 7.68799 32.1906 8.25758 33.2085 8.59379L36.5585 9.68442L36.6273 9.70004C36.8829 9.79296 37.1038 9.96231 37.2599 10.1851C37.416 10.4079 37.4997 10.6733 37.4997 10.9454C37.4997 11.2174 37.416 11.4828 37.2599 11.7056C37.1038 11.9284 36.8829 12.0978 36.6273 12.1907L33.2773 13.2813C32.26 13.6193 31.3353 14.1894 30.5765 14.9466C29.8177 15.7038 29.2455 16.6272 28.9054 17.6438L27.821 20.9938C27.7528 21.1863 27.6409 21.3604 27.494 21.5024C27.3472 21.6444 27.1695 21.7504 26.9748 21.8122C26.7801 21.8739 26.5738 21.8897 26.372 21.8584C26.1702 21.827 25.9784 21.7493 25.8116 21.6313L25.7491 21.5844C25.5565 21.4291 25.4105 21.2236 25.3273 20.9907L24.2398 17.6469C23.9046 16.626 23.3348 15.6979 22.5761 14.9371C21.8174 14.1762 20.8909 13.6038 19.871 13.2657L16.5179 12.175C16.2608 12.0835 16.0384 11.9147 15.8811 11.6917C15.7238 11.4688 15.6393 11.2026 15.6393 10.9297C15.6393 10.6569 15.7238 10.3907 15.8811 10.1677C16.0384 9.94476 16.2608 9.77593 16.5179 9.68442L19.8679 8.59379C20.8725 8.24677 21.7834 7.67258 22.5298 6.91592C23.2761 6.15925 23.8378 5.24053 24.171 4.23129L25.2585 0.881291C25.3486 0.622195 25.5177 0.39785 25.7419 0.239784C25.9661 0.081718 26.2311 -0.0021238 26.5054 4.08857e-05Z" fill="white"/>
</svg>
